# xmcd
#
# Track frame offsets:
#	150
#	6710
#	23916
#	43760
#	61598
#	64453
#	87486
#	108931
#	142474
#	162554
#	183894
#	202729
#	208783
#	233997
#	248711
#	249981
#	269537
#	277715
#	296252
#
# Disc length: 4215 seconds
#
# Revision: 1
# Processed by: cddbd v1.4PL0 Copyright (c) Steve Scherf et al.
# Submitted via: audiograbber 1.80
#
DISCID=1a107513
DTITLE=Ashanti - Ashanti
DYEAR=1900
DGENRE=
TTITLE0=Intro
TTITLE1=Foolish
TTITLE2=Happy
TTITLE3=Leaving (Always on Time, Pt. 2)
TTITLE4=Narrative Call (Skit)
TTITLE5=Call
TTITLE6=Scared
TTITLE7=Rescue
TTITLE8=Baby
TTITLE9=Voo Doo
TTITLE10=Movies
TTITLE11=Fight (over Skit)
TTITLE12=Over
TTITLE13=Unfoolish
TTITLE14=Shi Shi (Skit)
TTITLE15=Dreams
TTITLE16=Thank You
TTITLE17=Always On Time (feat. Ja Rule)
TTITLE18=What's Luv (feat. Ja Rule)
EXTD=
EXTT0=
EXTT1=
EXTT2=
EXTT3=
EXTT4=
EXTT5=
EXTT6=
EXTT7=
EXTT8=
EXTT9=
EXTT10=
EXTT11=
EXTT12=
EXTT13=
EXTT14=
EXTT15=
EXTT16=
EXTT17=
EXTT18=
PLAYORDER=
